<mxfile host="65bd71144e">
    <diagram id="kmAJGGws22bIz-2701WK" name="Page-1">
        <mxGraphModel dx="424" dy="187" grid="0" gridSize="10" guides="1" tooltips="1" connect="1" arrows="1" fold="1" page="1" pageScale="1" pageWidth="850" pageHeight="1100" math="0" shadow="0">
            <root>
                <mxCell id="0"/>
                <mxCell id="1" parent="0"/>
                <mxCell id="13" value="" style="edgeStyle=orthogonalEdgeStyle;rounded=0;orthogonalLoop=1;jettySize=auto;html=1;" parent="1" source="5" target="11" edge="1">
                    <mxGeometry relative="1" as="geometry"/>
                </mxCell>
                <mxCell id="5" value="Desain Filter Madgwick" style="rounded=1;whiteSpace=wrap;html=1;arcSize=37;" parent="1" vertex="1">
                    <mxGeometry x="415" y="220" width="80" height="35" as="geometry"/>
                </mxCell>
                <mxCell id="122" value="" style="edgeStyle=orthogonalEdgeStyle;rounded=0;orthogonalLoop=1;jettySize=auto;html=1;" parent="1" source="7" target="60" edge="1">
                    <mxGeometry relative="1" as="geometry"/>
                </mxCell>
                <mxCell id="7" value="Acceleromter(Acc), Gyroscope(Gyro), Magentometer(Mag)" style="shape=parallelogram;perimeter=parallelogramPerimeter;whiteSpace=wrap;html=1;fixedSize=1;" parent="1" vertex="1">
                    <mxGeometry x="385" y="345" width="140" height="60" as="geometry"/>
                </mxCell>
                <mxCell id="15" value="" style="edgeStyle=orthogonalEdgeStyle;rounded=0;orthogonalLoop=1;jettySize=auto;html=1;" parent="1" source="11" target="7" edge="1">
                    <mxGeometry relative="1" as="geometry"/>
                </mxCell>
                <mxCell id="11" value="Inisialisasi InverseSampling Rate dan Beta&amp;nbsp;" style="rounded=0;whiteSpace=wrap;html=1;" parent="1" vertex="1">
                    <mxGeometry x="405" y="275" width="100" height="40" as="geometry"/>
                </mxCell>
                <mxCell id="18" value="" style="edgeStyle=orthogonalEdgeStyle;rounded=0;orthogonalLoop=1;jettySize=auto;html=1;" parent="1" source="17" edge="1">
                    <mxGeometry relative="1" as="geometry">
                        <mxPoint x="592.5" y="61" as="targetPoint"/>
                    </mxGeometry>
                </mxCell>
                <mxCell id="17" value="Pengujian Inverse Kinematics" style="rounded=1;whiteSpace=wrap;html=1;arcSize=50;" parent="1" vertex="1">
                    <mxGeometry x="536.13" y="10" width="112.75" height="30" as="geometry"/>
                </mxCell>
                <mxCell id="50" value="" style="edgeStyle=orthogonalEdgeStyle;rounded=0;orthogonalLoop=1;jettySize=auto;html=1;" parent="1" source="21" target="48" edge="1">
                    <mxGeometry relative="1" as="geometry"/>
                </mxCell>
                <mxCell id="21" value="Simulasi dan Ambil PWM robot&amp;nbsp;" style="shape=process;whiteSpace=wrap;html=1;backgroundOutline=1;size=0;" parent="1" vertex="1">
                    <mxGeometry x="540" y="60" width="105" height="30" as="geometry"/>
                </mxCell>
                <mxCell id="34" value="" style="edgeStyle=orthogonalEdgeStyle;rounded=0;orthogonalLoop=1;jettySize=auto;html=1;" parent="1" source="32" target="33" edge="1">
                    <mxGeometry relative="1" as="geometry"/>
                </mxCell>
                <mxCell id="32" value="Mulai" style="rounded=1;whiteSpace=wrap;html=1;arcSize=42;" parent="1" vertex="1">
                    <mxGeometry x="37.49999999999997" y="10" width="70" height="30" as="geometry"/>
                </mxCell>
                <mxCell id="105" value="" style="edgeStyle=orthogonalEdgeStyle;rounded=0;orthogonalLoop=1;jettySize=auto;html=1;" parent="1" source="33" target="104" edge="1">
                    <mxGeometry relative="1" as="geometry"/>
                </mxCell>
                <mxCell id="33" value="Pengujian IMU" style="shape=process;whiteSpace=wrap;html=1;backgroundOutline=1;rounded=1;" parent="1" vertex="1">
                    <mxGeometry x="19.99999999999997" y="60" width="105" height="35" as="geometry"/>
                </mxCell>
                <mxCell id="213" style="edgeStyle=orthogonalEdgeStyle;rounded=0;orthogonalLoop=1;jettySize=auto;html=1;entryX=0.5;entryY=0;entryDx=0;entryDy=0;" parent="1" source="41" target="42" edge="1">
                    <mxGeometry relative="1" as="geometry"/>
                </mxCell>
                <mxCell id="41" value="Process Data" style="rounded=1;whiteSpace=wrap;html=1;arcSize=50;" parent="1" vertex="1">
                    <mxGeometry x="407.5" y="10" width="95" height="20" as="geometry"/>
                </mxCell>
                <mxCell id="85" value="" style="edgeStyle=orthogonalEdgeStyle;rounded=0;orthogonalLoop=1;jettySize=auto;html=1;" parent="1" source="42" target="43" edge="1">
                    <mxGeometry relative="1" as="geometry"/>
                </mxCell>
                <mxCell id="42" value="Arduino Data (IMU + Filter Realtime)" style="shape=process;whiteSpace=wrap;html=1;backgroundOutline=1;" parent="1" vertex="1">
                    <mxGeometry x="402.5" y="50" width="105" height="40" as="geometry"/>
                </mxCell>
                <mxCell id="111" value="" style="edgeStyle=orthogonalEdgeStyle;rounded=0;orthogonalLoop=1;jettySize=auto;html=1;" parent="1" source="43" target="110" edge="1">
                    <mxGeometry relative="1" as="geometry"/>
                </mxCell>
                <mxCell id="43" value="Olah Data IMU dengan MATLAB" style="shape=process;whiteSpace=wrap;html=1;backgroundOutline=1;" parent="1" vertex="1">
                    <mxGeometry x="395" y="110" width="120" height="40" as="geometry"/>
                </mxCell>
                <mxCell id="51" style="edgeStyle=orthogonalEdgeStyle;rounded=0;orthogonalLoop=1;jettySize=auto;html=1;" parent="1" source="48" edge="1">
                    <mxGeometry relative="1" as="geometry">
                        <mxPoint x="592.5" y="151" as="targetPoint"/>
                    </mxGeometry>
                </mxCell>
                <mxCell id="48" value="Process Data" style="shape=process;whiteSpace=wrap;html=1;backgroundOutline=1;" parent="1" vertex="1">
                    <mxGeometry x="544.19" y="111" width="96.62" height="17" as="geometry"/>
                </mxCell>
                <mxCell id="125" value="" style="edgeStyle=orthogonalEdgeStyle;rounded=0;orthogonalLoop=1;jettySize=auto;html=1;entryX=0.5;entryY=0;entryDx=0;entryDy=0;" parent="1" source="60" target="136" edge="1">
                    <mxGeometry relative="1" as="geometry">
                        <mxPoint x="455.02857142857147" y="485.0137931034484" as="targetPoint"/>
                    </mxGeometry>
                </mxCell>
                <mxCell id="60" value="Algoritma Filter" style="shape=process;whiteSpace=wrap;html=1;backgroundOutline=1;" parent="1" vertex="1">
                    <mxGeometry x="410" y="425" width="90" height="30" as="geometry"/>
                </mxCell>
                <mxCell id="91" value="" style="edgeStyle=orthogonalEdgeStyle;rounded=0;orthogonalLoop=1;jettySize=auto;html=1;" parent="1" source="66" target="87" edge="1">
                    <mxGeometry relative="1" as="geometry"/>
                </mxCell>
                <mxCell id="66" value="Pengujian IMU" style="rounded=1;whiteSpace=wrap;html=1;arcSize=50;" parent="1" vertex="1">
                    <mxGeometry x="36.25" y="240" width="72.5" height="30" as="geometry"/>
                </mxCell>
                <mxCell id="93" value="" style="edgeStyle=orthogonalEdgeStyle;rounded=0;orthogonalLoop=1;jettySize=auto;html=1;" parent="1" source="87" target="92" edge="1">
                    <mxGeometry relative="1" as="geometry"/>
                </mxCell>
                <mxCell id="87" value="Uji &lt;i&gt;roll, pitch, yaw&lt;/i&gt;" style="rounded=0;whiteSpace=wrap;html=1;" parent="1" vertex="1">
                    <mxGeometry x="22.5" y="290" width="100" height="30" as="geometry"/>
                </mxCell>
                <mxCell id="103" value="" style="edgeStyle=orthogonalEdgeStyle;rounded=0;orthogonalLoop=1;jettySize=auto;html=1;" parent="1" source="92" target="102" edge="1">
                    <mxGeometry relative="1" as="geometry"/>
                </mxCell>
                <mxCell id="92" value="Process Data" style="shape=process;whiteSpace=wrap;html=1;backgroundOutline=1;rounded=0;" parent="1" vertex="1">
                    <mxGeometry x="20" y="340" width="105" height="35" as="geometry"/>
                </mxCell>
                <mxCell id="102" value="Selesai&lt;br&gt;(Pengujian IMU)" style="whiteSpace=wrap;html=1;rounded=1;arcSize=39;" parent="1" vertex="1">
                    <mxGeometry x="26.25" y="395" width="92.5" height="30" as="geometry"/>
                </mxCell>
                <mxCell id="116" value="" style="edgeStyle=orthogonalEdgeStyle;rounded=0;orthogonalLoop=1;jettySize=auto;html=1;" parent="1" source="104" target="115" edge="1">
                    <mxGeometry relative="1" as="geometry"/>
                </mxCell>
                <mxCell id="104" value="Pengujian Pada Robot" style="shape=process;whiteSpace=wrap;html=1;backgroundOutline=1;rounded=1;" parent="1" vertex="1">
                    <mxGeometry x="19.99999999999997" y="120" width="105" height="35" as="geometry"/>
                </mxCell>
                <mxCell id="110" value="Selesai&lt;br&gt;(Process Data)" style="whiteSpace=wrap;html=1;rounded=1;arcSize=43;" parent="1" vertex="1">
                    <mxGeometry x="405" y="165" width="100" height="30" as="geometry"/>
                </mxCell>
                <mxCell id="112" value="Selesai&lt;br&gt;(Desain Filter Madgwick)" style="whiteSpace=wrap;html=1;rounded=1;arcSize=38;" parent="1" vertex="1">
                    <mxGeometry x="405" y="560" width="100" height="50" as="geometry"/>
                </mxCell>
                <mxCell id="115" value="Selesai" style="whiteSpace=wrap;html=1;rounded=1;arcSize=42;" parent="1" vertex="1">
                    <mxGeometry x="32.49999999999997" y="180" width="80" height="30" as="geometry"/>
                </mxCell>
                <mxCell id="140" value="" style="edgeStyle=orthogonalEdgeStyle;rounded=0;orthogonalLoop=1;jettySize=auto;html=1;" parent="1" source="121" target="139" edge="1">
                    <mxGeometry relative="1" as="geometry"/>
                </mxCell>
                <mxCell id="121" value="Update&lt;br&gt;(9 DoF)" style="rounded=1;whiteSpace=wrap;html=1;arcSize=0;" parent="1" vertex="1">
                    <mxGeometry x="183.24" y="50" width="62.26" height="30" as="geometry"/>
                </mxCell>
                <mxCell id="217" value="" style="edgeStyle=orthogonalEdgeStyle;rounded=0;orthogonalLoop=1;jettySize=auto;html=1;" parent="1" source="136" target="112" edge="1">
                    <mxGeometry relative="1" as="geometry"/>
                </mxCell>
                <mxCell id="136" value="Roll, Pitch, Yaw&lt;br&gt;(Sudut Euler)" style="shape=parallelogram;perimeter=parallelogramPerimeter;whiteSpace=wrap;html=1;fixedSize=1;" parent="1" vertex="1">
                    <mxGeometry x="395" y="475" width="120" height="60" as="geometry"/>
                </mxCell>
                <mxCell id="147" value="" style="edgeStyle=orthogonalEdgeStyle;rounded=0;orthogonalLoop=1;jettySize=auto;html=1;" parent="1" source="139" target="144" edge="1">
                    <mxGeometry relative="1" as="geometry"/>
                </mxCell>
                <mxCell id="154" value="" style="edgeStyle=orthogonalEdgeStyle;rounded=0;orthogonalLoop=1;jettySize=auto;html=1;" parent="1" source="139" target="153" edge="1">
                    <mxGeometry relative="1" as="geometry"/>
                </mxCell>
                <mxCell id="139" value="Mag?" style="rhombus;whiteSpace=wrap;html=1;rounded=1;arcSize=0;" parent="1" vertex="1">
                    <mxGeometry x="191.25" y="107.5" width="46.25" height="55" as="geometry"/>
                </mxCell>
                <mxCell id="199" style="edgeStyle=orthogonalEdgeStyle;rounded=0;orthogonalLoop=1;jettySize=auto;html=1;entryX=0.5;entryY=0;entryDx=0;entryDy=0;" parent="1" source="144" target="196" edge="1">
                    <mxGeometry relative="1" as="geometry"/>
                </mxCell>
                <mxCell id="144" value="UpdateIMU&lt;br&gt;(6 DoF)" style="shape=process;whiteSpace=wrap;html=1;backgroundOutline=1;size=0;" parent="1" vertex="1">
                    <mxGeometry x="290" y="188.75" width="87.5" height="25" as="geometry"/>
                </mxCell>
                <mxCell id="162" value="" style="edgeStyle=orthogonalEdgeStyle;rounded=0;orthogonalLoop=1;jettySize=auto;html=1;" parent="1" source="153" target="161" edge="1">
                    <mxGeometry relative="1" as="geometry"/>
                </mxCell>
                <mxCell id="153" value="Convert gyro DPS to Rad/s" style="rounded=1;whiteSpace=wrap;html=1;arcSize=0;" parent="1" vertex="1">
                    <mxGeometry x="172.49" y="187.5" width="83.75" height="27.5" as="geometry"/>
                </mxCell>
                <mxCell id="184" value="" style="edgeStyle=orthogonalEdgeStyle;rounded=0;orthogonalLoop=1;jettySize=auto;html=1;" parent="1" source="155" target="183" edge="1">
                    <mxGeometry relative="1" as="geometry"/>
                </mxCell>
                <mxCell id="155" value="Normalisasi Mag" style="whiteSpace=wrap;html=1;rounded=1;arcSize=0;" parent="1" vertex="1">
                    <mxGeometry x="162.5" y="298.75" width="103.75" height="31.25" as="geometry"/>
                </mxCell>
                <mxCell id="165" value="" style="edgeStyle=orthogonalEdgeStyle;rounded=0;orthogonalLoop=1;jettySize=auto;html=1;" parent="1" source="158" target="164" edge="1">
                    <mxGeometry relative="1" as="geometry"/>
                </mxCell>
                <mxCell id="158" value="Gradient Decent (s)" style="whiteSpace=wrap;html=1;rounded=1;arcSize=0;" parent="1" vertex="1">
                    <mxGeometry x="169.99" y="410" width="86.25" height="30" as="geometry"/>
                </mxCell>
                <mxCell id="163" value="" style="edgeStyle=orthogonalEdgeStyle;rounded=0;orthogonalLoop=1;jettySize=auto;html=1;" parent="1" source="161" target="155" edge="1">
                    <mxGeometry relative="1" as="geometry"/>
                </mxCell>
                <mxCell id="161" value="Hitung qDot dari gyro" style="whiteSpace=wrap;html=1;rounded=1;arcSize=0;" parent="1" vertex="1">
                    <mxGeometry x="166.24" y="245" width="96.25" height="30" as="geometry"/>
                </mxCell>
                <mxCell id="167" value="" style="edgeStyle=orthogonalEdgeStyle;rounded=0;orthogonalLoop=1;jettySize=auto;html=1;" parent="1" source="164" target="166" edge="1">
                    <mxGeometry relative="1" as="geometry"/>
                </mxCell>
                <mxCell id="164" value="Feedback dengan nilai beta (qDot = s * beta)" style="whiteSpace=wrap;html=1;rounded=1;arcSize=0;" parent="1" vertex="1">
                    <mxGeometry x="153.12" y="465" width="122.51" height="30" as="geometry"/>
                </mxCell>
                <mxCell id="170" value="" style="edgeStyle=orthogonalEdgeStyle;rounded=0;orthogonalLoop=1;jettySize=auto;html=1;" parent="1" source="166" target="169" edge="1">
                    <mxGeometry relative="1" as="geometry"/>
                </mxCell>
                <mxCell id="166" value="Hitung nilai quaternion&lt;br&gt;(q = qDot * invSamplingRate)" style="rounded=1;whiteSpace=wrap;html=1;arcSize=0;" parent="1" vertex="1">
                    <mxGeometry x="134.62" y="515" width="158.43" height="40" as="geometry"/>
                </mxCell>
                <mxCell id="172" value="" style="edgeStyle=orthogonalEdgeStyle;rounded=0;orthogonalLoop=1;jettySize=auto;html=1;" parent="1" source="169" target="171" edge="1">
                    <mxGeometry relative="1" as="geometry"/>
                </mxCell>
                <mxCell id="169" value="Konversi quaternion ke sudut euler" style="rounded=1;whiteSpace=wrap;html=1;arcSize=0;" parent="1" vertex="1">
                    <mxGeometry x="146.22" y="580" width="135.24" height="30" as="geometry"/>
                </mxCell>
                <mxCell id="171" value="Selesai (Algoritma Filter)" style="whiteSpace=wrap;html=1;rounded=1;arcSize=31;" parent="1" vertex="1">
                    <mxGeometry x="166.87" y="630" width="95.62" height="50" as="geometry"/>
                </mxCell>
                <mxCell id="186" style="edgeStyle=orthogonalEdgeStyle;rounded=0;orthogonalLoop=1;jettySize=auto;html=1;entryX=0.5;entryY=0;entryDx=0;entryDy=0;" parent="1" source="183" target="158" edge="1">
                    <mxGeometry relative="1" as="geometry"/>
                </mxCell>
                <mxCell id="183" value="Normalisasi Acc" style="whiteSpace=wrap;html=1;rounded=1;arcSize=0;" parent="1" vertex="1">
                    <mxGeometry x="161.96" y="350" width="103.75" height="31.25" as="geometry"/>
                </mxCell>
                <mxCell id="194" style="edgeStyle=orthogonalEdgeStyle;rounded=0;orthogonalLoop=1;jettySize=auto;html=1;entryX=0.5;entryY=0;entryDx=0;entryDy=0;" parent="1" source="192" target="121" edge="1">
                    <mxGeometry relative="1" as="geometry"/>
                </mxCell>
                <mxCell id="192" value="Algoritma Filter" style="rounded=1;whiteSpace=wrap;html=1;arcSize=32;" parent="1" vertex="1">
                    <mxGeometry x="164.15" y="10" width="102.1" height="20" as="geometry"/>
                </mxCell>
                <mxCell id="200" style="edgeStyle=orthogonalEdgeStyle;rounded=0;orthogonalLoop=1;jettySize=auto;html=1;" parent="1" source="196" target="197" edge="1">
                    <mxGeometry relative="1" as="geometry"/>
                </mxCell>
                <mxCell id="196" value="Convert gyro DPS to Rad/s" style="rounded=1;whiteSpace=wrap;html=1;arcSize=0;" parent="1" vertex="1">
                    <mxGeometry x="290" y="242.5" width="83.75" height="27.5" as="geometry"/>
                </mxCell>
                <mxCell id="201" style="edgeStyle=orthogonalEdgeStyle;rounded=0;orthogonalLoop=1;jettySize=auto;html=1;entryX=1;entryY=0.5;entryDx=0;entryDy=0;" parent="1" source="197" target="183" edge="1">
                    <mxGeometry relative="1" as="geometry">
                        <Array as="points">
                            <mxPoint x="328.12" y="366"/>
                        </Array>
                    </mxGeometry>
                </mxCell>
                <mxCell id="197" value="Hitung qDot dari gyro" style="whiteSpace=wrap;html=1;rounded=1;arcSize=0;" parent="1" vertex="1">
                    <mxGeometry x="283.75" y="298.75" width="96.25" height="30" as="geometry"/>
                </mxCell>
                <mxCell id="227" value="" style="edgeStyle=orthogonalEdgeStyle;rounded=0;orthogonalLoop=1;jettySize=auto;html=1;" parent="1" source="208" target="226" edge="1">
                    <mxGeometry relative="1" as="geometry"/>
                </mxCell>
                <mxCell id="208" value="Olah Data IMU dengan MATLAB" style="rounded=1;whiteSpace=wrap;html=1;arcSize=38;" parent="1" vertex="1">
                    <mxGeometry x="709.4899999999999" y="205.5" width="98.13" height="35" as="geometry"/>
                </mxCell>
                <mxCell id="219" value="" style="edgeStyle=orthogonalEdgeStyle;rounded=0;orthogonalLoop=1;jettySize=auto;html=1;" parent="1" source="210" target="218" edge="1">
                    <mxGeometry relative="1" as="geometry"/>
                </mxCell>
                <mxCell id="210" value="Kalibrasi&amp;nbsp;" style="rounded=1;whiteSpace=wrap;html=1;arcSize=0;" parent="1" vertex="1">
                    <mxGeometry x="558.44" y="460" width="70" height="30" as="geometry"/>
                </mxCell>
                <mxCell id="215" value="" style="edgeStyle=orthogonalEdgeStyle;rounded=0;orthogonalLoop=1;jettySize=auto;html=1;" parent="1" source="214" target="210" edge="1">
                    <mxGeometry relative="1" as="geometry"/>
                </mxCell>
                <mxCell id="214" value="Arduino Data (IMU + Filter Realtime)" style="rounded=1;whiteSpace=wrap;html=1;arcSize=30;" parent="1" vertex="1">
                    <mxGeometry x="540" y="400" width="106.88" height="40" as="geometry"/>
                </mxCell>
                <mxCell id="221" value="" style="edgeStyle=orthogonalEdgeStyle;rounded=0;orthogonalLoop=1;jettySize=auto;html=1;" parent="1" source="218" target="220" edge="1">
                    <mxGeometry relative="1" as="geometry"/>
                </mxCell>
                <mxCell id="218" value="Desain Filter Madgwick" style="rounded=1;whiteSpace=wrap;html=1;arcSize=0;" parent="1" vertex="1">
                    <mxGeometry x="554.69" y="510" width="77.5" height="30" as="geometry"/>
                </mxCell>
                <mxCell id="223" value="" style="edgeStyle=orthogonalEdgeStyle;rounded=0;orthogonalLoop=1;jettySize=auto;html=1;" parent="1" source="220" target="222" edge="1">
                    <mxGeometry relative="1" as="geometry"/>
                </mxCell>
                <mxCell id="220" value="Acc, Gyro, Mag, Roll, Pitch, Yaw" style="shape=parallelogram;perimeter=parallelogramPerimeter;whiteSpace=wrap;html=1;fixedSize=1;rounded=1;arcSize=0;" parent="1" vertex="1">
                    <mxGeometry x="540" y="565" width="106.88" height="40" as="geometry"/>
                </mxCell>
                <mxCell id="222" value="Selesai&lt;br&gt;(Arduino Data (IMU + Filter Realtime))" style="whiteSpace=wrap;html=1;rounded=1;arcSize=32;" parent="1" vertex="1">
                    <mxGeometry x="540.32" y="630" width="106.56" height="50" as="geometry"/>
                </mxCell>
                <mxCell id="229" value="" style="edgeStyle=orthogonalEdgeStyle;rounded=0;orthogonalLoop=1;jettySize=auto;html=1;" parent="1" source="226" target="228" edge="1">
                    <mxGeometry relative="1" as="geometry"/>
                </mxCell>
                <mxCell id="226" value="Desain Filter Madgwick" style="rounded=1;whiteSpace=wrap;html=1;arcSize=0;" parent="1" vertex="1">
                    <mxGeometry x="719.8000000000001" y="265.5" width="77.5" height="30" as="geometry"/>
                </mxCell>
                <mxCell id="231" value="" style="edgeStyle=orthogonalEdgeStyle;rounded=0;orthogonalLoop=1;jettySize=auto;html=1;" parent="1" source="228" target="230" edge="1">
                    <mxGeometry relative="1" as="geometry"/>
                </mxCell>
                <mxCell id="228" value="Hitung nilai RMSE" style="whiteSpace=wrap;html=1;rounded=1;arcSize=0;" parent="1" vertex="1">
                    <mxGeometry x="704.5" y="320.5" width="108.12" height="25" as="geometry"/>
                </mxCell>
                <mxCell id="233" value="" style="edgeStyle=orthogonalEdgeStyle;rounded=0;orthogonalLoop=1;jettySize=auto;html=1;" parent="1" source="230" target="232" edge="1">
                    <mxGeometry relative="1" as="geometry"/>
                </mxCell>
                <mxCell id="230" value="RMSE, Plot" style="shape=parallelogram;perimeter=parallelogramPerimeter;whiteSpace=wrap;html=1;fixedSize=1;rounded=1;arcSize=0;" parent="1" vertex="1">
                    <mxGeometry x="709.3499999999999" y="371.75" width="96.87" height="28.75" as="geometry"/>
                </mxCell>
                <mxCell id="232" value="Selesai&lt;br&gt;(Olah Data IMU dengan MATLAB)" style="whiteSpace=wrap;html=1;rounded=1;arcSize=32;" parent="1" vertex="1">
                    <mxGeometry x="704.5000000000001" y="425.5" width="106.56" height="50" as="geometry"/>
                </mxCell>
                <mxCell id="254" style="edgeStyle=none;html=1;entryX=0.525;entryY=0.013;entryDx=0;entryDy=0;entryPerimeter=0;" parent="1" source="235" target="236" edge="1">
                    <mxGeometry relative="1" as="geometry"/>
                </mxCell>
                <mxCell id="235" value="Pengujian IMU dan Robot Pada Bidang Miring" style="rounded=1;whiteSpace=wrap;html=1;arcSize=50;" parent="1" vertex="1">
                    <mxGeometry x="686.93" y="495" width="99.38" height="40" as="geometry"/>
                </mxCell>
                <mxCell id="250" value="" style="edgeStyle=none;html=1;" parent="1" source="236" target="244" edge="1">
                    <mxGeometry relative="1" as="geometry"/>
                </mxCell>
                <mxCell id="236" value="Test Robot di Bidang Miring" style="whiteSpace=wrap;html=1;rounded=1;arcSize=0;" parent="1" vertex="1">
                    <mxGeometry x="692.72" y="552" width="82.19" height="35" as="geometry"/>
                </mxCell>
                <mxCell id="242" value="Selesai&lt;br&gt;(Pengujian IMU dan Robot Secara Dinamis)" style="whiteSpace=wrap;html=1;rounded=1;arcSize=38;" parent="1" vertex="1">
                    <mxGeometry x="661.0000000000001" y="680" width="145.62" height="40" as="geometry"/>
                </mxCell>
                <mxCell id="248" style="edgeStyle=none;html=1;entryX=1;entryY=0.5;entryDx=0;entryDy=0;exitX=1;exitY=0.5;exitDx=0;exitDy=0;" parent="1" source="244" target="236" edge="1">
                    <mxGeometry relative="1" as="geometry">
                        <Array as="points">
                            <mxPoint x="794.62" y="634"/>
                            <mxPoint x="794.62" y="570"/>
                        </Array>
                    </mxGeometry>
                </mxCell>
                <mxCell id="251" value="" style="edgeStyle=none;html=1;entryX=0.5;entryY=0;entryDx=0;entryDy=0;" parent="1" source="244" target="242" edge="1">
                    <mxGeometry relative="1" as="geometry">
                        <mxPoint x="733.8087991266375" y="677" as="targetPoint"/>
                    </mxGeometry>
                </mxCell>
                <mxCell id="244" value="Robot stabil?" style="rhombus;whiteSpace=wrap;html=1;" parent="1" vertex="1">
                    <mxGeometry x="704.4999999999999" y="604" width="58.61" height="59" as="geometry"/>
                </mxCell>
                <mxCell id="259" value="Selesai&lt;br&gt;(Pengujian Inverse Kinematics)" style="whiteSpace=wrap;html=1;rounded=1;arcSize=50;" vertex="1" parent="1">
                    <mxGeometry x="533.65" y="149" width="119.9" height="40" as="geometry"/>
                </mxCell>
                <mxCell id="264" value="Selesai&lt;br&gt;(Pengujian IMU(Robot) Pada Bidang Miring)" style="whiteSpace=wrap;html=1;rounded=1;arcSize=50;" vertex="1" parent="1">
                    <mxGeometry x="325.58999999999986" y="825" width="138" height="40" as="geometry"/>
                </mxCell>
                <mxCell id="273" style="edgeStyle=none;html=1;entryX=0.5;entryY=0;entryDx=0;entryDy=0;" edge="1" parent="1" source="266" target="272">
                    <mxGeometry relative="1" as="geometry"/>
                </mxCell>
                <mxCell id="266" value="Process Data" style="shape=process;whiteSpace=wrap;html=1;backgroundOutline=1;" vertex="1" parent="1">
                    <mxGeometry x="346.15" y="745.5" width="96.88" height="20" as="geometry"/>
                </mxCell>
                <mxCell id="267" style="edgeStyle=none;html=1;" edge="1" parent="1" source="268" target="270">
                    <mxGeometry relative="1" as="geometry"/>
                </mxCell>
                <mxCell id="268" value="Pengujian IMU(Robot) Pada Bidang Miring" style="whiteSpace=wrap;html=1;rounded=1;arcSize=50;" vertex="1" parent="1">
                    <mxGeometry x="325.1099999999999" y="636" width="135.45" height="42" as="geometry"/>
                </mxCell>
                <mxCell id="269" style="edgeStyle=none;html=1;entryX=0.5;entryY=0;entryDx=0;entryDy=0;" edge="1" parent="1" source="270" target="266">
                    <mxGeometry relative="1" as="geometry"/>
                </mxCell>
                <mxCell id="270" value="Membaca kemiringan robot dan memberikan feedback PWM" style="whiteSpace=wrap;html=1;rounded=1;arcSize=0;" vertex="1" parent="1">
                    <mxGeometry x="309.9999999999999" y="689.5" width="165.78" height="43" as="geometry"/>
                </mxCell>
                <mxCell id="274" style="edgeStyle=none;html=1;" edge="1" parent="1" source="272" target="264">
                    <mxGeometry relative="1" as="geometry"/>
                </mxCell>
                <mxCell id="272" value="Robot Stabil (Roll, Pitch=0)" style="shape=parallelogram;perimeter=parallelogramPerimeter;whiteSpace=wrap;html=1;fixedSize=1;" vertex="1" parent="1">
                    <mxGeometry x="304.97999999999996" y="782" width="179.22" height="26" as="geometry"/>
                </mxCell>
                <mxCell id="285" style="edgeStyle=none;html=1;" edge="1" parent="1" source="276" target="279">
                    <mxGeometry relative="1" as="geometry"/>
                </mxCell>
                <mxCell id="276" value="PWM didapatkan sesuai sudut uji" style="shape=parallelogram;perimeter=parallelogramPerimeter;whiteSpace=wrap;html=1;fixedSize=1;" vertex="1" parent="1">
                    <mxGeometry x="515.09" y="850" width="125.62" height="30" as="geometry"/>
                </mxCell>
                <mxCell id="277" value="" style="edgeStyle=orthogonalEdgeStyle;rounded=0;orthogonalLoop=1;jettySize=auto;html=1;" edge="1" parent="1" source="278" target="281">
                    <mxGeometry relative="1" as="geometry"/>
                </mxCell>
                <mxCell id="278" value="Simulasi &lt;i&gt;Inverse Kinematics&lt;/i&gt;" style="rounded=1;whiteSpace=wrap;html=1;arcSize=50;" vertex="1" parent="1">
                    <mxGeometry x="522.5" y="720" width="110.62" height="25" as="geometry"/>
                </mxCell>
                <mxCell id="279" value="Selesai&lt;br&gt;(Simulasi Inverse Kinematicst)" style="whiteSpace=wrap;html=1;rounded=1;arcSize=50;" vertex="1" parent="1">
                    <mxGeometry x="516.4300000000001" y="895" width="122.93" height="41" as="geometry"/>
                </mxCell>
                <mxCell id="283" style="edgeStyle=none;html=1;entryX=0.5;entryY=0;entryDx=0;entryDy=0;" edge="1" parent="1" source="281" target="282">
                    <mxGeometry relative="1" as="geometry"/>
                </mxCell>
                <mxCell id="281" value="Simulasi IK(&lt;i&gt;Software&lt;/i&gt;)" style="rounded=0;whiteSpace=wrap;html=1;" vertex="1" parent="1">
                    <mxGeometry x="532.81" y="759" width="90" height="30" as="geometry"/>
                </mxCell>
                <mxCell id="284" style="edgeStyle=none;html=1;" edge="1" parent="1" source="282" target="276">
                    <mxGeometry relative="1" as="geometry"/>
                </mxCell>
                <mxCell id="282" value="Simulasi IK(&lt;i&gt;Hardware&lt;/i&gt;)" style="rounded=0;whiteSpace=wrap;html=1;" vertex="1" parent="1">
                    <mxGeometry x="532.8099999999998" y="805" width="90" height="30" as="geometry"/>
                </mxCell>
            </root>
        </mxGraphModel>
    </diagram>
</mxfile>